<?xml version="1.0" encoding="UTF-8" standalone="no"?>
<!DOCTYPE svg PUBLIC "-//W3C//DTD SVG 1.1//EN" "http://www.w3.org/Graphics/SVG/1.1/DTD/svg11.dtd">
<svg xmlns="http://www.w3.org/2000/svg" xmlns:xlink="http://www.w3.org/1999/xlink" version="1.1" width="443.011pt" height="181.982pt" viewBox="0 0 443.011 181.982">
<g enable-background="new">
<path transform="matrix(1,0,0,-1,122.089,91.47299)" d="M -72.88437 -86.85881 L 0 0 L -72.88437 86.85881 C -103.91118 60.82349 -118.69879 20.19952 -111.66573 -19.6891 C -107.03758 -45.93896 -93.3019 -69.72685 -72.88437 -86.85881 Z " fill="#fff2e6"/>
<path transform="matrix(1,0,0,-1,122.089,91.47299)" stroke-width=".79701" stroke-linecap="butt" stroke-miterlimit="10" stroke-linejoin="miter" fill="none" stroke="#000000" d="M -72.88437 -86.85881 L 0 0 L -72.88437 86.85881 C -103.91118 60.82349 -118.69879 20.19952 -111.66573 -19.6891 C -107.03758 -45.93896 -93.3019 -69.72685 -72.88437 -86.85881 Z "/>
<path transform="matrix(1,0,0,-1,122.089,91.47299)" stroke-width=".3985" stroke-linecap="butt" stroke-miterlimit="10" stroke-linejoin="miter" fill="none" stroke="#000000" d="M -67.28912 72.90755 C -92.02852 50.08003 -103.58948 16.13203 -97.7075 -17.22818 C -93.92944 -38.65645 -83.21527 -58.20976 -67.28851 -72.90826 "/>
<path transform="matrix(.75032,-.661,-.661,-.75032,54.727075,18.632706)" d="M 3.92847 0 L .19925 .94948 L .19925 0 L .19925 -.94948 Z "/>
<path transform="matrix(.75032,-.661,-.661,-.75032,54.727075,18.632706)" stroke-width=".3985" stroke-linecap="butt" stroke-miterlimit="10" stroke-linejoin="miter" fill="none" stroke="#000000" d="M 3.92847 0 L .19925 .94948 L .19925 0 L .19925 -.94948 Z "/>
<path transform="matrix(.75027,.66104,.66104,-.75027,54.727296,164.31349)" d="M 3.92847 0 L .19925 .94948 L .19925 0 L .19925 -.94948 Z "/>
<path transform="matrix(.75027,.66104,.66104,-.75027,54.727296,164.31349)" stroke-width=".3985" stroke-linecap="butt" stroke-miterlimit="10" stroke-linejoin="miter" fill="none" stroke="#000000" d="M 3.92847 0 L .19925 .94948 L .19925 0 L .19925 -.94948 Z "/>
<text xml:space="preserve" transform="matrix(1 0 -0 1 -.0000009536743 181.982)" font-size="9.9626" font-family="CMMI10" font-style="italic"><tspan y="-88.364" x="12.947">&#x03b1;</tspan></text>
<path transform="matrix(1,0,0,-1,122.089,91.47299)" stroke-width=".3985" stroke-linecap="butt" stroke-miterlimit="10" stroke-linejoin="miter" fill="none" stroke="#000000" d="M -121.89136 -17.00824 L 113.38724 -17.00824 "/>
<path transform="matrix(1,0,0,-1,122.089,91.47299)" d="M -28.3468 -12.1889 L -28.3468 14.17339 L 28.3468 14.17339 L 28.3468 -12.1889 Z M 28.3468 14.17339 " fill="#ff8080"/>
<path transform="matrix(1,0,0,-1,122.089,91.47299)" d="M -3.99379 -.34937 L 52.49168 66.96632 L 56.83485 63.32188 L .34937 -3.99379 Z M 56.83485 63.32188 " fill="#8080ff"/>
<path transform="matrix(1,0,0,-1,122.089,91.47299)" d="M 2.5511 0 C 2.5511 1.40894 1.40894 2.5511 0 2.5511 C -1.40894 2.5511 -2.5511 1.40894 -2.5511 0 C -2.5511 -1.40894 -1.40894 -2.5511 0 -2.5511 C 1.40894 -2.5511 2.5511 -1.40894 2.5511 0 Z M 0 0 " fill="#929292"/>
<path transform="matrix(1,0,0,-1,122.089,91.47299)" d="M -24.09496 -12.75595 C -24.09496 -10.40771 -25.99855 -8.50412 -28.3468 -8.50412 C -30.69505 -8.50412 -32.59865 -10.40771 -32.59865 -12.75595 C -32.59865 -15.1042 -30.69505 -17.0078 -28.3468 -17.0078 C -25.99855 -17.0078 -24.09496 -15.1042 -24.09496 -12.75595 Z M -28.3468 -12.75595 " fill="#929292"/>
<path transform="matrix(1,0,0,-1,122.089,91.47299)" d="M 32.59865 -12.75595 C 32.59865 -10.40771 30.69505 -8.50412 28.3468 -8.50412 C 25.99855 -8.50412 24.09496 -10.40771 24.09496 -12.75595 C 24.09496 -15.1042 25.99855 -17.0078 28.3468 -17.0078 C 30.69505 -17.0078 32.59865 -15.1042 32.59865 -12.75595 Z M 28.3468 -12.75595 " fill="#929292"/>
<path transform="matrix(1,0,0,-1,122.089,91.47299)" stroke-width=".3985" stroke-linecap="butt" stroke-miterlimit="10" stroke-linejoin="miter" fill="none" stroke="#929292" d="M 70.86703 0 C 70.86703 39.13928 39.13928 70.86703 0 70.86703 C -39.13928 70.86703 -70.86703 39.13928 -70.86703 0 C -70.86703 -39.13928 -39.13928 -70.86703 0 -70.86703 C 39.13928 -70.86703 70.86703 -39.13928 70.86703 0 Z M 0 0 "/>
<path transform="matrix(1,0,0,-1,122.089,91.47299)" stroke-width=".79701" stroke-linecap="butt" stroke-miterlimit="10" stroke-linejoin="miter" fill="none" stroke="#929292" d="M -85.04042 0 L 110.79697 0 "/>
<path transform="matrix(1,0,0,-1,232.88596,91.47299)" d="M 2.59026 0 L -1.55415 2.0722 L 0 0 L -1.55415 -2.0722 " fill="#929292"/>
<text fill="#929292" xml:space="preserve" transform="matrix(1 0 -0 1 -.000015258789 181.982)" font-size="9.9626" font-family="CMMI10" font-style="italic"><tspan y="-82.501" x="232.628">x</tspan></text>
<path transform="matrix(1,0,0,-1,122.089,91.47299)" stroke-width=".79701" stroke-linecap="butt" stroke-miterlimit="10" stroke-linejoin="miter" fill="none" stroke="#929292" d="M 0 -85.04042 L 0 82.45015 "/>
<path transform="matrix(0,-1,-1,-0,122.089,9.022842)" d="M 2.59026 0 L -1.55415 2.0722 L 0 0 L -1.55415 -2.0722 " fill="#929292"/>
<text fill="#929292" xml:space="preserve" transform="matrix(1 0 -0 1 0 181.982)" font-size="9.9626" font-family="CMMI10" font-style="italic"><tspan y="-174.372" x="113.128">y</tspan></text>
<text xml:space="preserve" transform="matrix(1 0 -0 1 0 181.982)" font-size="9.9626" font-family="CMR10"><tspan y="-74.9" x="196.134">1</tspan></text>
<text xml:space="preserve" transform="matrix(1 0 -0 1 0 181.982)" font-size="9.9626" font-family="CMR10"><tspan y="-3.321" x="125.268">1</tspan></text>
<path transform="matrix(1,0,0,-1,122.089,91.47299)" stroke-width="1.59404" stroke-linecap="butt" stroke-miterlimit="10" stroke-linejoin="miter" fill="none" stroke="#000000" d="M 0 0 L -54.28676 0 "/>
<text xml:space="preserve" transform="matrix(1 0 -0 1 0 181.982)" font-size="9.9626" font-family="CMR10"><tspan y="-79.473" x="84.97 89.393398 94.374698">cos</tspan></text>
<text xml:space="preserve" transform="matrix(1 0 -0 1 0 181.982)" font-size="9.9626" font-family="CMMI10" font-style="italic"><tspan y="-79.473" x="99.969">&#x03b8;</tspan></text>
<path transform="matrix(1,0,0,-1,122.089,91.47299)" stroke-width=".79701" stroke-linecap="butt" stroke-dasharray="2.98883,2.98883" stroke-miterlimit="10" stroke-linejoin="miter" fill="none" stroke="#004d00" d="M 42.5202 0 C 42.5202 23.48355 23.48355 42.5202 0 42.5202 C -23.48355 42.5202 -42.5202 23.48355 -42.5202 0 C -42.5202 -9.9955 -38.99652 -19.67506 -32.57204 -27.33163 "/>
<text fill="#004d00" xml:space="preserve" transform="matrix(1 0 -0 1 0 181.982)" font-size="9.9626" font-family="CMMI10" font-style="italic"><tspan y="-115.019" x="109.433">&#x03b8;</tspan></text>
<path transform="matrix(1,0,0,-1,122.089,91.47299)" stroke-width="1.59404" stroke-linecap="butt" stroke-dasharray="2.98883,2.98883" stroke-miterlimit="10" stroke-linejoin="miter" fill="none" stroke="#00aeef" d="M -54.28676 -45.55273 L -54.28676 0 "/>
<text fill="#00aeef" xml:space="preserve" transform="matrix(0 1 -1 -0 -4.842003 32.511987)" font-size="9.9626" font-family="CMR10"><tspan y="-77.156" x="72.314 76.239269 79.008869">sin</tspan></text>
<text fill="#00aeef" xml:space="preserve" transform="matrix(0 1 -1 -0 -4.842003 32.511987)" font-size="9.9626" font-family="CMMI10" font-style="italic"><tspan y="-77.156" x="86.206">&#x03b8;</tspan></text>
<path transform="matrix(1,0,0,-1,122.089,91.47299)" stroke-width=".79701" stroke-linecap="butt" stroke-miterlimit="10" stroke-linejoin="miter" fill="none" stroke="#ff0000" d="M 0 0 L -54.28674 -45.55272 "/>
<path transform="matrix(1,0,0,-1,122.089,91.47299)" d="M 71.86331 0 C 71.86331 .55023 71.41728 .99628 70.86703 .99628 C 70.3168 .99628 69.87076 .55023 69.87076 0 C 69.87076 -.55023 70.3168 -.99628 70.86703 -.99628 C 71.41728 -.99628 71.86331 -.55023 71.86331 0 Z M 70.86703 0 "/>
<path transform="matrix(1,0,0,-1,122.089,91.47299)" stroke-width=".3985" stroke-linecap="butt" stroke-miterlimit="10" stroke-linejoin="miter" fill="none" stroke="#000000" d="M 71.86331 0 C 71.86331 .55023 71.41728 .99628 70.86703 .99628 C 70.3168 .99628 69.87076 .55023 69.87076 0 C 69.87076 -.55023 70.3168 -.99628 70.86703 -.99628 C 71.41728 -.99628 71.86331 -.55023 71.86331 0 Z M 70.86703 0 "/>
<path transform="matrix(1,0,0,-1,122.089,91.47299)" d="M 62.36911 35.4335 C 62.36911 35.98375 61.92307 36.42978 61.37283 36.42978 C 60.82259 36.42978 60.37656 35.98375 60.37656 35.4335 C 60.37656 34.88327 60.82259 34.43723 61.37283 34.43723 C 61.92307 34.43723 62.36911 34.88327 62.36911 35.4335 Z M 61.37283 35.4335 "/>
<path transform="matrix(1,0,0,-1,122.089,91.47299)" stroke-width=".3985" stroke-linecap="butt" stroke-miterlimit="10" stroke-linejoin="miter" fill="none" stroke="#000000" d="M 62.36911 35.4335 C 62.36911 35.98375 61.92307 36.42978 61.37283 36.42978 C 60.82259 36.42978 60.37656 35.98375 60.37656 35.4335 C 60.37656 34.88327 60.82259 34.43723 61.37283 34.43723 C 61.92307 34.43723 62.36911 34.88327 62.36911 35.4335 Z M 61.37283 35.4335 "/>
<path transform="matrix(1,0,0,-1,122.089,91.47299)" d="M 36.42978 61.37283 C 36.42978 61.92307 35.98375 62.36911 35.4335 62.36911 C 34.88327 62.36911 34.43723 61.92307 34.43723 61.37283 C 34.43723 60.82259 34.88327 60.37656 35.4335 60.37656 C 35.98375 60.37656 36.42978 60.82259 36.42978 61.37283 Z M 35.4335 61.37283 "/>
<path transform="matrix(1,0,0,-1,122.089,91.47299)" stroke-width=".3985" stroke-linecap="butt" stroke-miterlimit="10" stroke-linejoin="miter" fill="none" stroke="#000000" d="M 36.42978 61.37283 C 36.42978 61.92307 35.98375 62.36911 35.4335 62.36911 C 34.88327 62.36911 34.43723 61.92307 34.43723 61.37283 C 34.43723 60.82259 34.88327 60.37656 35.4335 60.37656 C 35.98375 60.37656 36.42978 60.82259 36.42978 61.37283 Z M 35.4335 61.37283 "/>
<path transform="matrix(1,0,0,-1,122.089,91.47299)" d="M .99628 70.86703 C .99628 71.41728 .55023 71.86331 0 71.86331 C -.55023 71.86331 -.99628 71.41728 -.99628 70.86703 C -.99628 70.3168 -.55023 69.87076 0 69.87076 C .55023 69.87076 .99628 70.3168 .99628 70.86703 Z M 0 70.86703 "/>
<path transform="matrix(1,0,0,-1,122.089,91.47299)" stroke-width=".3985" stroke-linecap="butt" stroke-miterlimit="10" stroke-linejoin="miter" fill="none" stroke="#000000" d="M .99628 70.86703 C .99628 71.41728 .55023 71.86331 0 71.86331 C -.55023 71.86331 -.99628 71.41728 -.99628 70.86703 C -.99628 70.3168 -.55023 69.87076 0 69.87076 C .55023 69.87076 .99628 70.3168 .99628 70.86703 Z M 0 70.86703 "/>
<path transform="matrix(1,0,0,-1,122.089,91.47299)" d="M -34.43723 61.37283 C -34.43723 61.92307 -34.88327 62.36911 -35.4335 62.36911 C -35.98375 62.36911 -36.42978 61.92307 -36.42978 61.37283 C -36.42978 60.82259 -35.98375 60.37656 -35.4335 60.37656 C -34.88327 60.37656 -34.43723 60.82259 -34.43723 61.37283 Z M -35.4335 61.37283 "/>
<path transform="matrix(1,0,0,-1,122.089,91.47299)" stroke-width=".3985" stroke-linecap="butt" stroke-miterlimit="10" stroke-linejoin="miter" fill="none" stroke="#000000" d="M -34.43723 61.37283 C -34.43723 61.92307 -34.88327 62.36911 -35.4335 62.36911 C -35.98375 62.36911 -36.42978 61.92307 -36.42978 61.37283 C -36.42978 60.82259 -35.98375 60.37656 -35.4335 60.37656 C -34.88327 60.37656 -34.43723 60.82259 -34.43723 61.37283 Z M -35.4335 61.37283 "/>
<path transform="matrix(1,0,0,-1,122.089,91.47299)" d="M -60.37656 35.4335 C -60.37656 35.98375 -60.82259 36.42978 -61.37283 36.42978 C -61.92307 36.42978 -62.36911 35.98375 -62.36911 35.4335 C -62.36911 34.88327 -61.92307 34.43723 -61.37283 34.43723 C -60.82259 34.43723 -60.37656 34.88327 -60.37656 35.4335 Z M -61.37283 35.4335 "/>
<path transform="matrix(1,0,0,-1,122.089,91.47299)" stroke-width=".3985" stroke-linecap="butt" stroke-miterlimit="10" stroke-linejoin="miter" fill="none" stroke="#000000" d="M -60.37656 35.4335 C -60.37656 35.98375 -60.82259 36.42978 -61.37283 36.42978 C -61.92307 36.42978 -62.36911 35.98375 -62.36911 35.4335 C -62.36911 34.88327 -61.92307 34.43723 -61.37283 34.43723 C -60.82259 34.43723 -60.37656 34.88327 -60.37656 35.4335 Z M -61.37283 35.4335 "/>
<path transform="matrix(1,0,0,-1,122.089,91.47299)" d="M -69.87076 0 C -69.87076 .55023 -70.3168 .99628 -70.86703 .99628 C -71.41728 .99628 -71.86331 .55023 -71.86331 0 C -71.86331 -.55023 -71.41728 -.99628 -70.86703 -.99628 C -70.3168 -.99628 -69.87076 -.55023 -69.87076 0 Z M -70.86703 0 "/>
<path transform="matrix(1,0,0,-1,122.089,91.47299)" stroke-width=".3985" stroke-linecap="butt" stroke-miterlimit="10" stroke-linejoin="miter" fill="none" stroke="#000000" d="M -69.87076 0 C -69.87076 .55023 -70.3168 .99628 -70.86703 .99628 C -71.41728 .99628 -71.86331 .55023 -71.86331 0 C -71.86331 -.55023 -71.41728 -.99628 -70.86703 -.99628 C -70.3168 -.99628 -69.87076 -.55023 -69.87076 0 Z M -70.86703 0 "/>
<path transform="matrix(1,0,0,-1,122.089,91.47299)" d="M -60.37656 -35.4335 C -60.37656 -34.88327 -60.82259 -34.43723 -61.37283 -34.43723 C -61.92307 -34.43723 -62.36911 -34.88327 -62.36911 -35.4335 C -62.36911 -35.98375 -61.92307 -36.42978 -61.37283 -36.42978 C -60.82259 -36.42978 -60.37656 -35.98375 -60.37656 -35.4335 Z M -61.37283 -35.4335 "/>
<path transform="matrix(1,0,0,-1,122.089,91.47299)" stroke-width=".3985" stroke-linecap="butt" stroke-miterlimit="10" stroke-linejoin="miter" fill="none" stroke="#000000" d="M -60.37656 -35.4335 C -60.37656 -34.88327 -60.82259 -34.43723 -61.37283 -34.43723 C -61.92307 -34.43723 -62.36911 -34.88327 -62.36911 -35.4335 C -62.36911 -35.98375 -61.92307 -36.42978 -61.37283 -36.42978 C -60.82259 -36.42978 -60.37656 -35.98375 -60.37656 -35.4335 Z M -61.37283 -35.4335 "/>
<path transform="matrix(1,0,0,-1,122.089,91.47299)" d="M -34.43723 -61.37283 C -34.43723 -60.82259 -34.88327 -60.37656 -35.4335 -60.37656 C -35.98375 -60.37656 -36.42978 -60.82259 -36.42978 -61.37283 C -36.42978 -61.92307 -35.98375 -62.36911 -35.4335 -62.36911 C -34.88327 -62.36911 -34.43723 -61.92307 -34.43723 -61.37283 Z M -35.4335 -61.37283 "/>
<path transform="matrix(1,0,0,-1,122.089,91.47299)" stroke-width=".3985" stroke-linecap="butt" stroke-miterlimit="10" stroke-linejoin="miter" fill="none" stroke="#000000" d="M -34.43723 -61.37283 C -34.43723 -60.82259 -34.88327 -60.37656 -35.4335 -60.37656 C -35.98375 -60.37656 -36.42978 -60.82259 -36.42978 -61.37283 C -36.42978 -61.92307 -35.98375 -62.36911 -35.4335 -62.36911 C -34.88327 -62.36911 -34.43723 -61.92307 -34.43723 -61.37283 Z M -35.4335 -61.37283 "/>
<path transform="matrix(1,0,0,-1,122.089,91.47299)" d="M .99628 -70.86703 C .99628 -70.3168 .55023 -69.87076 0 -69.87076 C -.55023 -69.87076 -.99628 -70.3168 -.99628 -70.86703 C -.99628 -71.41728 -.55023 -71.86331 0 -71.86331 C .55023 -71.86331 .99628 -71.41728 .99628 -70.86703 Z M 0 -70.86703 "/>
<path transform="matrix(1,0,0,-1,122.089,91.47299)" stroke-width=".3985" stroke-linecap="butt" stroke-miterlimit="10" stroke-linejoin="miter" fill="none" stroke="#000000" d="M .99628 -70.86703 C .99628 -70.3168 .55023 -69.87076 0 -69.87076 C -.55023 -69.87076 -.99628 -70.3168 -.99628 -70.86703 C -.99628 -71.41728 -.55023 -71.86331 0 -71.86331 C .55023 -71.86331 .99628 -71.41728 .99628 -70.86703 Z M 0 -70.86703 "/>
<path transform="matrix(1,0,0,-1,122.089,91.47299)" d="M 36.42978 -61.37283 C 36.42978 -60.82259 35.98375 -60.37656 35.4335 -60.37656 C 34.88327 -60.37656 34.43723 -60.82259 34.43723 -61.37283 C 34.43723 -61.92307 34.88327 -62.36911 35.4335 -62.36911 C 35.98375 -62.36911 36.42978 -61.92307 36.42978 -61.37283 Z M 35.4335 -61.37283 "/>
<path transform="matrix(1,0,0,-1,122.089,91.47299)" stroke-width=".3985" stroke-linecap="butt" stroke-miterlimit="10" stroke-linejoin="miter" fill="none" stroke="#000000" d="M 36.42978 -61.37283 C 36.42978 -60.82259 35.98375 -60.37656 35.4335 -60.37656 C 34.88327 -60.37656 34.43723 -60.82259 34.43723 -61.37283 C 34.43723 -61.92307 34.88327 -62.36911 35.4335 -62.36911 C 35.98375 -62.36911 36.42978 -61.92307 36.42978 -61.37283 Z M 35.4335 -61.37283 "/>
<path transform="matrix(1,0,0,-1,122.089,91.47299)" d="M 62.36911 -35.4335 C 62.36911 -34.88327 61.92307 -34.43723 61.37283 -34.43723 C 60.82259 -34.43723 60.37656 -34.88327 60.37656 -35.4335 C 60.37656 -35.98375 60.82259 -36.42978 61.37283 -36.42978 C 61.92307 -36.42978 62.36911 -35.98375 62.36911 -35.4335 Z M 61.37283 -35.4335 "/>
<path transform="matrix(1,0,0,-1,122.089,91.47299)" stroke-width=".3985" stroke-linecap="butt" stroke-miterlimit="10" stroke-linejoin="miter" fill="none" stroke="#000000" d="M 62.36911 -35.4335 C 62.36911 -34.88327 61.92307 -34.43723 61.37283 -34.43723 C 60.82259 -34.43723 60.37656 -34.88327 60.37656 -35.4335 C 60.37656 -35.98375 60.82259 -36.42978 61.37283 -36.42978 C 61.92307 -36.42978 62.36911 -35.98375 62.36911 -35.4335 Z M 61.37283 -35.4335 "/>
<path transform="matrix(1,0,0,-1,122.089,91.47299)" d="M 71.86331 0 C 71.86331 .55023 71.41728 .99628 70.86703 .99628 C 70.3168 .99628 69.87076 .55023 69.87076 0 C 69.87076 -.55023 70.3168 -.99628 70.86703 -.99628 C 71.41728 -.99628 71.86331 -.55023 71.86331 0 Z M 70.86703 0 "/>
<path transform="matrix(1,0,0,-1,122.089,91.47299)" stroke-width=".3985" stroke-linecap="butt" stroke-miterlimit="10" stroke-linejoin="miter" fill="none" stroke="#000000" d="M 71.86331 0 C 71.86331 .55023 71.41728 .99628 70.86703 .99628 C 70.3168 .99628 69.87076 .55023 69.87076 0 C 69.87076 -.55023 70.3168 -.99628 70.86703 -.99628 C 71.41728 -.99628 71.86331 -.55023 71.86331 0 Z M 70.86703 0 "/>
<path transform="matrix(1,0,0,-1,122.089,91.47299)" stroke-width=".3985" stroke-linecap="butt" stroke-miterlimit="10" stroke-linejoin="miter" fill="none" stroke="#000000" d="M 68.73764 39.68558 "/>
<text xml:space="preserve" transform="matrix(1 0 -0 1 .000015258789 181.982)" font-size="4.9813" font-family="CMMI5" font-style="italic"><tspan y="-131.412" x="188.666">&#x03c0;</tspan></text>
<path transform="matrix(1,0,0,-1,188.66602,51.25499)" stroke-width=".398" stroke-linecap="butt" stroke-miterlimit="10" stroke-linejoin="miter" fill="none" stroke="#000000" d="M 0 0 L 4.319 0 "/>
<text xml:space="preserve" transform="matrix(1 0 -0 1 .000015258789 181.982)" font-size="4.9813" font-family="CMR5"><tspan y="-126.832" x="189.131">6</tspan></text>
<path transform="matrix(1,0,0,-1,122.089,91.47299)" stroke-width=".3985" stroke-linecap="butt" stroke-miterlimit="10" stroke-linejoin="miter" fill="none" stroke="#000000" d="M 39.68558 68.73764 "/>
<text xml:space="preserve" transform="matrix(1 0 -0 1 0 181.982)" font-size="4.9813" font-family="CMMI5" font-style="italic"><tspan y="-160.464" x="159.615">&#x03c0;</tspan></text>
<path transform="matrix(1,0,0,-1,159.615,22.202988)" stroke-width=".398" stroke-linecap="butt" stroke-miterlimit="10" stroke-linejoin="miter" fill="none" stroke="#000000" d="M 0 0 L 4.319 0 "/>
<text xml:space="preserve" transform="matrix(1 0 -0 1 0 181.982)" font-size="4.9813" font-family="CMR5"><tspan y="-155.884" x="160.079">3</tspan></text>
<path transform="matrix(1,0,0,-1,122.089,91.47299)" stroke-width=".3985" stroke-linecap="butt" stroke-miterlimit="10" stroke-linejoin="miter" fill="none" stroke="#000000" d="M -39.68558 68.73764 "/>
<text xml:space="preserve" transform="matrix(1 0 -0 1 0 181.982)" font-size="4.9813" font-family="CMR5"><tspan y="-159.931" x="78.549">2</tspan></text>
<text xml:space="preserve" transform="matrix(1 0 -0 1 0 181.982)" font-size="4.9813" font-family="CMMI5" font-style="italic"><tspan y="-159.931" x="81.94">&#x03c0;</tspan></text>
<path transform="matrix(1,0,0,-1,78.549,22.735993)" stroke-width=".398" stroke-linecap="butt" stroke-miterlimit="10" stroke-linejoin="miter" fill="none" stroke="#000000" d="M 0 0 L 7.709 0 "/>
<text xml:space="preserve" transform="matrix(1 0 -0 1 0 181.982)" font-size="4.9813" font-family="CMR5"><tspan y="-155.351" x="80.709">3</tspan></text>
<path transform="matrix(1,0,0,-1,122.089,91.47299)" stroke-width=".3985" stroke-linecap="butt" stroke-miterlimit="10" stroke-linejoin="miter" fill="none" stroke="#000000" d="M -68.73764 39.68558 "/>
<text xml:space="preserve" transform="matrix(1 0 -0 1 -.0000038146974 181.982)" font-size="4.9813" font-family="CMR5"><tspan y="-130.879" x="49.498">5</tspan></text>
<text xml:space="preserve" transform="matrix(1 0 -0 1 -.0000038146974 181.982)" font-size="4.9813" font-family="CMMI5" font-style="italic"><tspan y="-130.879" x="52.888">&#x03c0;</tspan></text>
<path transform="matrix(1,0,0,-1,49.497999,51.787996)" stroke-width=".398" stroke-linecap="butt" stroke-miterlimit="10" stroke-linejoin="miter" fill="none" stroke="#000000" d="M 0 0 L 7.709 0 "/>
<text xml:space="preserve" transform="matrix(1 0 -0 1 -.0000038146974 181.982)" font-size="4.9813" font-family="CMR5"><tspan y="-126.299" x="51.657">6</tspan></text>
<path transform="matrix(1,0,0,-1,122.089,91.47299)" stroke-width=".3985" stroke-linecap="butt" stroke-miterlimit="10" stroke-linejoin="miter" fill="none" stroke="#000000" d="M -68.73764 -39.68558 "/>
<text xml:space="preserve" transform="matrix(1 0 -0 1 -.0000038146974 181.98198)" font-size="4.9813" font-family="CMR5"><tspan y="-51.509" x="49.498">7</tspan></text>
<text xml:space="preserve" transform="matrix(1 0 -0 1 -.0000038146974 181.98198)" font-size="4.9813" font-family="CMMI5" font-style="italic"><tspan y="-51.509" x="52.888">&#x03c0;</tspan></text>
<path transform="matrix(1,0,0,-1,49.497999,131.15798)" stroke-width=".398" stroke-linecap="butt" stroke-miterlimit="10" stroke-linejoin="miter" fill="none" stroke="#000000" d="M 0 0 L 7.709 0 "/>
<text xml:space="preserve" transform="matrix(1 0 -0 1 -.0000038146974 181.98198)" font-size="4.9813" font-family="CMR5"><tspan y="-46.929" x="51.657">6</tspan></text>
<path transform="matrix(1,0,0,-1,122.089,91.47299)" stroke-width=".3985" stroke-linecap="butt" stroke-miterlimit="10" stroke-linejoin="miter" fill="none" stroke="#000000" d="M -39.68558 -68.73764 "/>
<text xml:space="preserve" transform="matrix(1 0 -0 1 0 181.982)" font-size="4.9813" font-family="CMR5"><tspan y="-22.457" x="78.549">4</tspan></text>
<text xml:space="preserve" transform="matrix(1 0 -0 1 0 181.982)" font-size="4.9813" font-family="CMMI5" font-style="italic"><tspan y="-22.457" x="81.94">&#x03c0;</tspan></text>
<path transform="matrix(1,0,0,-1,78.549,160.209)" stroke-width=".398" stroke-linecap="butt" stroke-miterlimit="10" stroke-linejoin="miter" fill="none" stroke="#000000" d="M 0 0 L 7.709 0 "/>
<text xml:space="preserve" transform="matrix(1 0 -0 1 0 181.982)" font-size="4.9813" font-family="CMR5"><tspan y="-17.878" x="80.709">3</tspan></text>
<path transform="matrix(1,0,0,-1,122.089,91.47299)" stroke-width=".3985" stroke-linecap="butt" stroke-miterlimit="10" stroke-linejoin="miter" fill="none" stroke="#000000" d="M 39.68558 -68.73764 "/>
<text xml:space="preserve" transform="matrix(1 0 -0 1 0 181.982)" font-size="4.9813" font-family="CMR5"><tspan y="-22.457" x="157.92">5</tspan></text>
<text xml:space="preserve" transform="matrix(1 0 -0 1 0 181.982)" font-size="4.9813" font-family="CMMI5" font-style="italic"><tspan y="-22.457" x="161.31">&#x03c0;</tspan></text>
<path transform="matrix(1,0,0,-1,157.92,160.209)" stroke-width=".398" stroke-linecap="butt" stroke-miterlimit="10" stroke-linejoin="miter" fill="none" stroke="#000000" d="M 0 0 L 7.709 0 "/>
<text xml:space="preserve" transform="matrix(1 0 -0 1 0 181.982)" font-size="4.9813" font-family="CMR5"><tspan y="-17.878" x="160.079">3</tspan></text>
<path transform="matrix(1,0,0,-1,122.089,91.47299)" stroke-width=".3985" stroke-linecap="butt" stroke-miterlimit="10" stroke-linejoin="miter" fill="none" stroke="#000000" d="M 68.73764 -39.68558 "/>
<text xml:space="preserve" transform="matrix(1 0 -0 1 0 181.98198)" font-size="4.9813" font-family="CMR5"><tspan y="-51.509" x="185.276 188.66828">11</tspan></text>
<text xml:space="preserve" transform="matrix(1 0 -0 1 0 181.98198)" font-size="4.9813" font-family="CMMI5" font-style="italic"><tspan y="-51.509" x="192.056">&#x03c0;</tspan></text>
<path transform="matrix(1,0,0,-1,185.276,131.15798)" stroke-width=".398" stroke-linecap="butt" stroke-miterlimit="10" stroke-linejoin="miter" fill="none" stroke="#000000" d="M 0 0 L 11.099 0 "/>
<text xml:space="preserve" transform="matrix(1 0 -0 1 0 181.98198)" font-size="4.9813" font-family="CMR5"><tspan y="-46.929" x="189.131">6</tspan></text>
<path transform="matrix(1,0,0,-1,122.089,91.47299)" stroke-width=".3985" stroke-linecap="butt" stroke-miterlimit="10" stroke-linejoin="miter" fill="none" stroke="#000000" d="M 0 76.53632 "/>
<text xml:space="preserve" transform="matrix(1 0 -0 1 -.0000076293949 181.982)" font-size="4.9813" font-family="CMMI5" font-style="italic"><tspan y="-168.262" x="123.915">&#x03c0;</tspan></text>
<path transform="matrix(1,0,0,-1,123.91499,14.404999)" stroke-width=".398" stroke-linecap="butt" stroke-miterlimit="10" stroke-linejoin="miter" fill="none" stroke="#000000" d="M 0 0 L 4.319 0 "/>
<text xml:space="preserve" transform="matrix(1 0 -0 1 -.0000076293949 181.982)" font-size="4.9813" font-family="CMR5"><tspan y="-163.682" x="124.379">2</tspan></text>
<path transform="matrix(1,0,0,-1,122.089,91.47299)" stroke-width=".3985" stroke-linecap="butt" stroke-miterlimit="10" stroke-linejoin="miter" fill="none" stroke="#000000" d="M 0 -76.53632 "/>
<text xml:space="preserve" transform="matrix(1 0 -0 1 0 181.982)" font-size="4.9813" font-family="CMR5"><tspan y="-14.659" x="113.253">3</tspan></text>
<text xml:space="preserve" transform="matrix(1 0 -0 1 0 181.982)" font-size="4.9813" font-family="CMMI5" font-style="italic"><tspan y="-14.659" x="116.643">&#x03c0;</tspan></text>
<path transform="matrix(1,0,0,-1,113.253,168.008)" stroke-width=".398" stroke-linecap="butt" stroke-miterlimit="10" stroke-linejoin="miter" fill="none" stroke="#000000" d="M 0 0 L 7.709 0 "/>
<text xml:space="preserve" transform="matrix(1 0 -0 1 0 181.982)" font-size="4.9813" font-family="CMR5"><tspan y="-10.079" x="115.413">2</tspan></text>
<path transform="matrix(1,0,0,-1,122.089,91.47299)" stroke-width=".3985" stroke-linecap="butt" stroke-miterlimit="10" stroke-linejoin="miter" fill="none" stroke="#000000" d="M -76.53632 0 "/>
<text xml:space="preserve" transform="matrix(1 0 -0 1 -.0000038146974 181.982)" font-size="4.9813" font-family="CMMI5" font-style="italic"><tspan y="-93.422" x="43.394">&#x03c0;</tspan></text>
<path transform="matrix(1,0,0,-1,122.089,91.47299)" stroke-width=".3985" stroke-linecap="butt" stroke-miterlimit="10" stroke-linejoin="miter" fill="none" stroke="#000000" d="M 76.53632 0 "/>
<text xml:space="preserve" transform="matrix(1 0 -0 1 -.000015258789 181.982)" font-size="4.9813" font-family="CMR5"><tspan y="-92.889" x="196.929">0</tspan></text>
<path transform="matrix(1,0,0,-1,122.089,91.47299)" stroke-width=".3985" stroke-linecap="butt" stroke-miterlimit="10" stroke-linejoin="miter" fill="none" stroke="#000000" d="M 76.11705 -7.99977 "/>
<text xml:space="preserve" transform="matrix(1 0 -0 1 0 181.982)" font-size="4.9813" font-family="CMR5"><tspan y="-84.89" x="194.351">2</tspan></text>
<text xml:space="preserve" transform="matrix(1 0 -0 1 0 181.982)" font-size="4.9813" font-family="CMMI5" font-style="italic"><tspan y="-84.89" x="197.741">&#x03c0;</tspan></text>
<path transform="matrix(1,0,0,-1,248.34299,162.33899)" stroke-width=".19925" stroke-linecap="butt" stroke-miterlimit="10" stroke-linejoin="miter" fill="none" stroke="#929292" d="M 14.71748 68.74107 L 14.71748 72.99303 M 29.43498 68.74107 L 29.43498 72.99303 M 44.15247 68.74107 L 44.15247 72.99303 M 58.86996 68.74107 L 58.86996 72.99303 M 73.58745 68.74107 L 73.58745 72.99303 M 88.30495 68.74107 L 88.30495 72.99303 M 103.02243 68.74107 L 103.02243 72.99303 M 117.73993 68.74107 L 117.73993 72.99303 M 132.45742 68.74107 L 132.45742 72.99303 M 147.17491 68.74107 L 147.17491 72.99303 M 161.8924 68.74107 L 161.8924 72.99303 M 176.6099 68.74107 L 176.6099 72.99303 "/>
<path transform="matrix(1,0,0,-1,248.34299,162.33899)" stroke-width=".19925" stroke-linecap="butt" stroke-miterlimit="10" stroke-linejoin="miter" fill="none" stroke="#929292" d="M -2.1258 0 L 2.1258 0 M -2.1258 35.43352 L 2.1258 35.43352 M -2.1258 106.30058 L 2.1258 106.30058 M -2.1258 141.73412 L 2.1258 141.73412 "/>
<path transform="matrix(1,0,0,-1,248.34299,162.33899)" stroke-width=".79701" stroke-linecap="butt" stroke-miterlimit="10" stroke-linejoin="miter" fill="none" stroke="#000000" d="M 0 70.86705 L 191.68167 70.86705 "/>
<path transform="matrix(1,0,0,-1,440.02467,91.47194)" d="M 2.59026 0 L -1.55415 2.0722 L 0 0 L -1.55415 -2.0722 "/>
<path transform="matrix(1,0,0,-1,248.34299,162.33899)" stroke-width=".79701" stroke-linecap="butt" stroke-miterlimit="10" stroke-linejoin="miter" fill="none" stroke="#000000" d="M 0 -14.17426 L 0 153.31812 "/>
<path transform="matrix(0,-1,-1,-0,248.34299,9.020874)" d="M 2.59026 0 L -1.55415 2.0722 L 0 0 L -1.55415 -2.0722 "/>
<text xml:space="preserve" transform="matrix(1 0 -0 1 0 181.982)" font-size="4.9813" font-family="CMMI5" font-style="italic"><tspan y="-82.52" x="260.901">&#x03c0;</tspan></text>
<path transform="matrix(1,0,0,-1,260.901,100.146999)" stroke-width=".398" stroke-linecap="butt" stroke-miterlimit="10" stroke-linejoin="miter" fill="none" stroke="#000000" d="M 0 0 L 4.319 0 "/>
<text xml:space="preserve" transform="matrix(1 0 -0 1 0 181.982)" font-size="4.9813" font-family="CMR5"><tspan y="-77.94" x="261.365">6</tspan></text>
<text xml:space="preserve" transform="matrix(1 0 -0 1 -.000030517579 181.982)" font-size="4.9813" font-family="CMMI5" font-style="italic"><tspan y="-82.52" x="275.618">&#x03c0;</tspan></text>
<path transform="matrix(1,0,0,-1,275.61799,100.146999)" stroke-width=".398" stroke-linecap="butt" stroke-miterlimit="10" stroke-linejoin="miter" fill="none" stroke="#000000" d="M 0 0 L 4.319 0 "/>
<text xml:space="preserve" transform="matrix(1 0 -0 1 -.000030517579 181.982)" font-size="4.9813" font-family="CMR5"><tspan y="-77.94" x="276.083">3</tspan></text>
<text xml:space="preserve" transform="matrix(1 0 -0 1 -.000030517579 181.982)" font-size="4.9813" font-family="CMMI5" font-style="italic"><tspan y="-82.52" x="290.336">&#x03c0;</tspan></text>
<path transform="matrix(1,0,0,-1,290.33598,100.146999)" stroke-width=".398" stroke-linecap="butt" stroke-miterlimit="10" stroke-linejoin="miter" fill="none" stroke="#000000" d="M 0 0 L 4.319 0 "/>
<text xml:space="preserve" transform="matrix(1 0 -0 1 -.000030517579 181.982)" font-size="4.9813" font-family="CMR5"><tspan y="-77.94" x="290.8">2</tspan></text>
<text xml:space="preserve" transform="matrix(1 0 -0 1 0 181.982)" font-size="4.9813" font-family="CMR5"><tspan y="-81.454" x="303.358">2</tspan></text>
<text xml:space="preserve" transform="matrix(1 0 -0 1 0 181.982)" font-size="4.9813" font-family="CMMI5" font-style="italic"><tspan y="-81.454" x="306.74803">&#x03c0;</tspan></text>
<path transform="matrix(1,0,0,-1,303.358,101.213)" stroke-width=".398" stroke-linecap="butt" stroke-miterlimit="10" stroke-linejoin="miter" fill="none" stroke="#000000" d="M 0 0 L 7.709 0 "/>
<text xml:space="preserve" transform="matrix(1 0 -0 1 0 181.982)" font-size="4.9813" font-family="CMR5"><tspan y="-76.874" x="305.517">3</tspan></text>
<text xml:space="preserve" transform="matrix(1 0 -0 1 0 181.982)" font-size="4.9813" font-family="CMR5"><tspan y="-81.454" x="318.075">5</tspan></text>
<text xml:space="preserve" transform="matrix(1 0 -0 1 0 181.982)" font-size="4.9813" font-family="CMMI5" font-style="italic"><tspan y="-81.454" x="321.46504">&#x03c0;</tspan></text>
<path transform="matrix(1,0,0,-1,318.075,101.213)" stroke-width=".398" stroke-linecap="butt" stroke-miterlimit="10" stroke-linejoin="miter" fill="none" stroke="#000000" d="M 0 0 L 7.709 0 "/>
<text xml:space="preserve" transform="matrix(1 0 -0 1 0 181.982)" font-size="4.9813" font-family="CMR5"><tspan y="-76.874" x="320.235">6</tspan></text>
<text xml:space="preserve" transform="matrix(1 0 -0 1 0 181.982)" font-size="4.9813" font-family="CMMI5" font-style="italic"><tspan y="-82.52" x="334.487">&#x03c0;</tspan></text>
<text xml:space="preserve" transform="matrix(1 0 -0 1 0 181.982)" font-size="4.9813" font-family="CMR5"><tspan y="-81.454" x="347.51">7</tspan></text>
<text xml:space="preserve" transform="matrix(1 0 -0 1 0 181.982)" font-size="4.9813" font-family="CMMI5" font-style="italic"><tspan y="-81.454" x="350.90003">&#x03c0;</tspan></text>
<path transform="matrix(1,0,0,-1,347.51,101.213)" stroke-width=".398" stroke-linecap="butt" stroke-miterlimit="10" stroke-linejoin="miter" fill="none" stroke="#000000" d="M 0 0 L 7.709 0 "/>
<text xml:space="preserve" transform="matrix(1 0 -0 1 0 181.982)" font-size="4.9813" font-family="CMR5"><tspan y="-76.874" x="349.669">6</tspan></text>
<text xml:space="preserve" transform="matrix(1 0 -0 1 0 181.982)" font-size="4.9813" font-family="CMR5"><tspan y="-81.454" x="362.227">4</tspan></text>
<text xml:space="preserve" transform="matrix(1 0 -0 1 0 181.982)" font-size="4.9813" font-family="CMMI5" font-style="italic"><tspan y="-81.454" x="365.617">&#x03c0;</tspan></text>
<path transform="matrix(1,0,0,-1,362.227,101.213)" stroke-width=".398" stroke-linecap="butt" stroke-miterlimit="10" stroke-linejoin="miter" fill="none" stroke="#000000" d="M 0 0 L 7.709 0 "/>
<text xml:space="preserve" transform="matrix(1 0 -0 1 0 181.982)" font-size="4.9813" font-family="CMR5"><tspan y="-76.874" x="364.386">3</tspan></text>
<text xml:space="preserve" transform="matrix(1 0 -0 1 0 181.982)" font-size="4.9813" font-family="CMR5"><tspan y="-81.454" x="376.944">3</tspan></text>
<text xml:space="preserve" transform="matrix(1 0 -0 1 0 181.982)" font-size="4.9813" font-family="CMMI5" font-style="italic"><tspan y="-81.454" x="380.334">&#x03c0;</tspan></text>
<path transform="matrix(1,0,0,-1,376.944,101.213)" stroke-width=".398" stroke-linecap="butt" stroke-miterlimit="10" stroke-linejoin="miter" fill="none" stroke="#000000" d="M 0 0 L 7.709 0 "/>
<text xml:space="preserve" transform="matrix(1 0 -0 1 0 181.982)" font-size="4.9813" font-family="CMR5"><tspan y="-76.874" x="379.104">2</tspan></text>
<text xml:space="preserve" transform="matrix(1 0 -0 1 0 181.982)" font-size="4.9813" font-family="CMR5"><tspan y="-81.454" x="391.662">5</tspan></text>
<text xml:space="preserve" transform="matrix(1 0 -0 1 0 181.982)" font-size="4.9813" font-family="CMMI5" font-style="italic"><tspan y="-81.454" x="395.052">&#x03c0;</tspan></text>
<path transform="matrix(1,0,0,-1,391.662,101.213)" stroke-width=".398" stroke-linecap="butt" stroke-miterlimit="10" stroke-linejoin="miter" fill="none" stroke="#000000" d="M 0 0 L 7.709 0 "/>
<text xml:space="preserve" transform="matrix(1 0 -0 1 0 181.982)" font-size="4.9813" font-family="CMR5"><tspan y="-76.874" x="393.821">3</tspan></text>
<text xml:space="preserve" transform="matrix(1 0 -0 1 -.000030517579 181.982)" font-size="4.9813" font-family="CMR5"><tspan y="-81.454" x="404.684 408.07627">11</tspan></text>
<text xml:space="preserve" transform="matrix(1 0 -0 1 -.000030517579 181.982)" font-size="4.9813" font-family="CMMI5" font-style="italic"><tspan y="-81.454" x="411.464">&#x03c0;</tspan></text>
<path transform="matrix(1,0,0,-1,404.68397,101.213)" stroke-width=".398" stroke-linecap="butt" stroke-miterlimit="10" stroke-linejoin="miter" fill="none" stroke="#000000" d="M 0 0 L 11.099 0 "/>
<text xml:space="preserve" transform="matrix(1 0 -0 1 -.000030517579 181.982)" font-size="4.9813" font-family="CMR5"><tspan y="-76.874" x="408.538">6</tspan></text>
<text xml:space="preserve" transform="matrix(1 0 -0 1 0 181.982)" font-size="4.9813" font-family="CMR5"><tspan y="-81.454" x="421.096">2</tspan></text>
<text xml:space="preserve" transform="matrix(1 0 -0 1 0 181.982)" font-size="4.9813" font-family="CMMI5" font-style="italic"><tspan y="-81.454" x="424.48603">&#x03c0;</tspan></text>
<text xml:space="preserve" transform="matrix(1 0 -0 1 -.000015258789 181.98198)" font-size="4.9813" font-family="CMSY5" font-style="italic"><tspan y="-18.398" x="233.712">&#x2212;</tspan></text>
<text xml:space="preserve" transform="matrix(1 0 -0 1 -.000015258789 181.98198)" font-size="4.9813" font-family="CMR5"><tspan y="-18.398" x="239.108">1</tspan></text>
<text xml:space="preserve" transform="matrix(1 0 -0 1 0 181.982)" font-size="4.9813" font-family="CMSY5" font-style="italic"><tspan y="-53.831" x="228.038">&#x2212;</tspan></text>
<text xml:space="preserve" transform="matrix(1 0 -0 1 0 181.982)" font-size="4.9813" font-family="CMR5"><tspan y="-53.831" x="233.435">0</tspan></text>
<text xml:space="preserve" transform="matrix(1 0 -0 1 0 181.982)" font-size="4.9813" font-family="CMMI5" font-style="italic"><tspan y="-53.831" x="236.825">.</tspan></text>
<text xml:space="preserve" transform="matrix(1 0 -0 1 0 181.982)" font-size="4.9813" font-family="CMR5"><tspan y="-53.831" x="239.108">5</tspan></text>
<text xml:space="preserve" transform="matrix(1 0 -0 1 -.000015258789 181.982)" font-size="4.9813" font-family="CMR5"><tspan y="-124.337" x="233.435">0</tspan></text>
<text xml:space="preserve" transform="matrix(1 0 -0 1 -.000015258789 181.982)" font-size="4.9813" font-family="CMMI5" font-style="italic"><tspan y="-124.337" x="236.825">.</tspan></text>
<text xml:space="preserve" transform="matrix(1 0 -0 1 -.000015258789 181.982)" font-size="4.9813" font-family="CMR5"><tspan y="-124.337" x="239.108">5</tspan></text>
<text xml:space="preserve" transform="matrix(1 0 -0 1 -.000015258789 181.982)" font-size="4.9813" font-family="CMR5"><tspan y="-159.77" x="239.108">1</tspan></text>
<clipPath id="cp0">
<path transform="matrix(1,0,0,-1,248.34299,162.33899)" d="M 0 -14.17426 L 194.27194 -14.17426 L 194.27194 155.90839 L 0 155.90839 Z "/>
</clipPath>
<g clip-path="url(#cp0)">
<path transform="matrix(1,0,0,-1,248.34299,162.33899)" stroke-width="1.59404" stroke-linecap="butt" stroke-miterlimit="10" stroke-linejoin="miter" fill="none" stroke="#00aeef" d="M 0 70.86705 L 1.21262 73.92142 L 2.42525 76.97224 L 3.63786 80.01175 L 4.8505 83.03421 L 6.06311 86.03401 L 7.27573 89.00476 L 8.48836 91.94292 L 9.70097 94.84138 L 10.9136 97.69449 L 12.12622 100.4994 L 13.33884 103.24763 L 14.55147 105.93631 L 15.76408 108.55983 L 16.97672 111.11174 L 18.18933 113.59068 L 19.40195 115.98811 L 20.61458 118.30475 L 21.8272 120.52927 L 23.03983 122.6645 L 24.25244 124.7005 L 25.46506 126.63942 L 26.67769 128.47135 L 27.8903 130.19837 L 29.10294 131.81415 L 30.31555 133.31723 L 31.52817 134.70339 L 32.7408 135.9705 L 33.95341 137.11641 L 35.16605 138.14115 L 36.37866 139.03832 L 37.59128 139.80794 L 38.80391 140.45284 L 40.01654 140.96451 L 41.22916 141.3493 L 42.44177 141.59946 L 43.6544 141.72206 L 44.86702 141.70719 L 46.07965 141.56543 L 47.29227 141.28836 L 48.50488 140.8837 L 49.71751 140.34583 L 50.93013 139.68181 L 52.14275 138.88668 L 53.35536 137.96683 L 54.56798 136.92224 L 55.7806 135.75223 L 56.99321 134.46459 L 58.20583 133.05644 L 59.41844 131.53351 L 60.63106 129.8979 L 61.84367 128.15314 L 63.05629 126.29926 L 64.2689 124.34618 L 65.48152 122.2896 L 66.69414 120.1395 L 67.90675 117.89584 L 69.11937 115.56645 L 70.33199 113.15343 L 71.5446 110.66174 L 72.75722 108.09566 L 73.96983 105.46152 L 75.18245 102.76147 L 76.39507 100.00192 L 77.60768 97.18779 L 78.8203 94.32689 L 80.03291 91.42133 L 81.24554 88.47679 L 82.45816 85.50108 L 83.67078 82.49704 L 84.88339 79.47102 L 86.09601 76.4294 L 87.30862 73.37717 L 88.52124 70.32208 L 89.73386 67.267 L 90.94647 64.21902 L 92.15909 61.18164 L 93.3717 58.16342 L 94.58432 55.16786 L 95.79694 52.20277 L 97.00957 49.27171 L 98.22218 46.37965 L 99.4348 43.53575 L 100.64742 40.74075 L 101.86003 38.00386 L 103.07265 35.32509 L 104.28526 32.71506 L 105.49788 30.17377 L 106.7105 27.71185 L 107.92311 25.32646 "/>
<path transform="matrix(1,0,0,-1,248.34299,162.33899)" stroke-width="1.59404" stroke-linecap="butt" stroke-miterlimit="10" stroke-linejoin="miter" fill="none" stroke="#000000" d="M 0 141.73412 L 1.21262 141.66394 L 2.42525 141.46836 L 3.63786 141.1374 L 4.8505 140.6796 L 6.06311 140.08858 L 7.27573 139.36998 L 8.48836 138.52384 L 9.70097 137.55295 L 10.9136 136.45594 L 12.12622 135.23844 L 13.33884 133.90119 L 14.55147 132.44557 L 15.76408 130.87656 L 16.97672 129.19347 L 18.18933 127.4048 L 19.40195 125.50768 L 20.61458 123.51207 L 21.8272 121.41652 L 23.03983 119.23027 L 24.25244 116.94835 L 25.46506 114.58493 L 26.67769 112.13861 L 27.8903 109.61716 L 29.10294 107.02202 L 30.31555 104.35883 L 31.52817 101.63327 L 32.7408 98.85245 L 33.95341 96.01918 L 35.16605 93.13844 L 36.37866 90.21588 L 37.59128 87.25719 L 38.80391 84.26942 L 40.01654 81.25545 L 41.22916 78.22234 L 42.44177 75.17577 L 43.6544 72.1214 L 44.86702 69.06703 L 46.07965 66.01265 L 47.29227 62.96892 L 48.50488 59.93935 L 49.71751 56.92963 L 50.93013 53.9461 L 52.14275 50.9938 L 53.35536 48.07762 L 54.56798 45.20609 L 55.7806 42.38133 L 56.99321 39.60973 L 58.20583 36.89551 L 59.41844 34.24437 L 60.63106 31.66339 L 61.84367 29.15186 L 63.05629 26.72112 L 64.2689 24.37047 L 65.48152 22.10838 L 66.69414 19.93489 L 67.90675 17.8592 L 69.11937 15.87846 L 70.33199 14.00331 L 71.5446 12.23093 L 72.75722 10.56981 L 73.96983 9.02065 L 75.18245 7.587 L 76.39507 6.26959 L 77.60768 5.07407 L 78.8203 3.99901 L 80.03291 3.0494 L 81.24554 2.22662 L 82.45816 1.5293 L 83.67078 .96378 L 84.88339 .52583 L 86.09601 .2225 L 87.30862 .04533 L 88.52124 .00565 L 89.73386 .09422 L 90.94647 .31677 L 92.15909 .66826 L 93.3717 1.15086 L 94.58432 1.76387 L 95.79694 2.50514 L 97.00957 3.37325 L 98.22218 4.36752 L 99.4348 5.48653 L 100.64742 6.72597 L 101.86003 8.0852 L 103.07265 9.55995 L 104.28526 11.15092 L 105.49788 12.8496 L 106.7105 14.66096 L 107.92311 16.57365 "/>
<path transform="matrix(1,0,0,-1,248.34299,162.33899)" stroke-width="1.59404" stroke-linecap="butt" stroke-miterlimit="10" stroke-linejoin="miter" fill="none" stroke="#00aeef" d="M 107.43768 70.86705 L 107.44316 70.86705 L 107.44867 70.86705 L 107.45418 70.86705 L 107.45967 70.86705 L 107.46518 70.86705 L 107.47069 70.86705 L 107.47618 70.86705 L 107.48169 70.86705 L 107.4872 70.86705 L 107.49269 70.86705 L 107.4982 70.86705 L 107.50371 70.86705 L 107.5092 70.86705 L 107.5147 70.86705 L 107.5202 70.86705 L 107.5257 70.86705 L 107.5312 70.86705 L 107.5367 70.86705 L 107.5422 70.86705 L 107.54771 70.86705 L 107.5532 70.86705 L 107.55872 70.86705 L 107.56422 70.86705 L 107.56972 70.86705 L 107.57523 70.86705 L 107.58073 70.86705 L 107.58623 70.86705 L 107.59172 70.86705 L 107.59723 70.86705 L 107.60272 70.86705 L 107.60823 70.86705 L 107.61374 70.86705 L 107.61923 70.86705 L 107.62474 70.86705 L 107.63025 70.86705 L 107.63574 70.86705 L 107.64125 70.86705 L 107.64676 70.86705 L 107.65225 70.86705 L 107.65776 70.86705 L 107.66324 70.86705 L 107.66875 70.86705 L 107.67426 70.86705 L 107.67975 70.86705 L 107.68526 70.86705 L 107.69077 70.86705 L 107.69626 70.86705 L 107.70177 70.86705 L 107.70728 70.86705 L 107.71277 70.86705 L 107.71828 70.86705 L 107.72379 70.86705 L 107.72928 70.86705 L 107.73479 70.86705 L 107.74028 70.86705 L 107.74577 70.86705 L 107.75128 70.86705 L 107.75679 70.86705 L 107.76228 70.86705 L 107.76779 70.86705 L 107.7733 70.86705 L 107.7788 70.86705 L 107.7843 70.86705 L 107.7898 70.86705 L 107.7953 70.86705 L 107.80081 70.86705 L 107.8063 70.86705 L 107.8118 70.86705 L 107.8173 70.86705 L 107.8228 70.86705 L 107.82831 70.86705 L 107.83382 70.86705 L 107.83931 70.86705 L 107.84482 70.86705 L 107.85033 70.86705 L 107.85582 70.86705 L 107.86133 70.86705 L 107.86684 70.86705 L 107.87233 70.86705 L 107.87784 70.86705 L 107.88335 70.86705 L 107.88882 70.86705 L 107.89433 70.86705 L 107.89984 70.86705 L 107.90533 70.86705 L 107.91084 70.86705 L 107.91635 70.86705 L 107.92184 70.86705 L 107.92735 70.86705 "/>
</g>
<path transform="matrix(1,0,0,-1,248.34299,162.33899)" d="M 139.80841 123.32631 L 189.98715 123.32631 L 189.98715 152.10749 L 139.80841 152.10749 Z " fill="#ffffff"/>
<path transform="matrix(1,0,0,-1,248.34299,162.33899)" stroke-width=".79701" stroke-linecap="butt" stroke-miterlimit="10" stroke-linejoin="miter" fill="none" stroke="#000000" d="M 139.80841 123.32631 L 189.98715 123.32631 L 189.98715 152.10749 L 139.80841 152.10749 Z "/>
<path transform="matrix(1,0,0,-1,391.935,18.424984)" stroke-width="1.59404" stroke-linecap="butt" stroke-miterlimit="10" stroke-linejoin="miter" fill="none" stroke="#00aeef" d="M 0 0 L 8.50412 0 L 17.00826 0 "/>
<text xml:space="preserve" transform="matrix(1 0 -0 1 .000030517579 181.98198)" font-size="9.9626" font-family="CMR10"><tspan y="-160.845" x="412.287 416.21226 418.98185">sin</tspan></text>
<text xml:space="preserve" transform="matrix(1 0 -0 1 .000030517579 181.98198)" font-size="9.9626" font-family="CMMI10" font-style="italic"><tspan y="-160.845" x="427.839">&#x03b8;</tspan></text>
<path transform="matrix(1,0,0,-1,391.935,30.822983)" stroke-width="1.59404" stroke-linecap="butt" stroke-miterlimit="10" stroke-linejoin="miter" fill="none" stroke="#000000" d="M 0 0 L 8.50412 0 L 17.00826 0 "/>
<text xml:space="preserve" transform="matrix(1 0 -0 1 0 181.982)" font-size="9.9626" font-family="CMR10"><tspan y="-148.447" x="411.733 416.1564 421.1377">cos</tspan></text>
<text xml:space="preserve" transform="matrix(1 0 -0 1 0 181.982)" font-size="9.9626" font-family="CMMI10" font-style="italic"><tspan y="-148.447" x="428.393">&#x03b8;</tspan></text>
<path transform="matrix(1,0,0,-1,122.089,91.47299)" stroke-width=".79701" stroke-linecap="butt" stroke-dasharray="2.98883,2.98883" stroke-miterlimit="10" stroke-linejoin="miter" fill="none" stroke="#ff0000" d="M -54.28674 -45.55272 L 234.17888 -45.54059 "/>
<path transform="matrix(1,0,0,-1,122.089,91.47299)" stroke-width=".79701" stroke-linecap="butt" stroke-dasharray="2.98883,2.98883" stroke-miterlimit="10" stroke-linejoin="miter" fill="none" stroke="#00aeef" d="M 234.17888 -45.54059 L 234.18312 0 "/>
<path transform="matrix(1,0,0,-1,122.089,91.47299)" d="M -52.79233 -45.55272 C -52.79233 -44.72737 -53.4614 -44.0583 -54.28674 -44.0583 C -55.11209 -44.0583 -55.78116 -44.72737 -55.78116 -45.55272 C -55.78116 -46.37807 -55.11209 -47.04713 -54.28674 -47.04713 C -53.4614 -47.04713 -52.79233 -46.37807 -52.79233 -45.55272 Z M -54.28674 -45.55272 "/>
<path transform="matrix(1,0,0,-1,122.089,91.47299)" stroke-width=".3985" stroke-linecap="butt" stroke-miterlimit="10" stroke-linejoin="miter" fill="none" stroke="#000000" d="M -52.79233 -45.55272 C -52.79233 -44.72737 -53.4614 -44.0583 -54.28674 -44.0583 C -55.11209 -44.0583 -55.78116 -44.72737 -55.78116 -45.55272 C -55.78116 -46.37807 -55.11209 -47.04713 -54.28674 -47.04713 C -53.4614 -47.04713 -52.79233 -46.37807 -52.79233 -45.55272 Z M -54.28674 -45.55272 "/>
</g>
</svg>
